Coordinates
version=1
nRows=26
nColumns=24
inDegrees=yes

Units are S.I. units (second, meters, Newtons, ...)
Angles are in degrees.

endheader
time	pelvis_tilt	pelvis_list	pelvis_rotation	pelvis_tx	pelvis_ty	pelvis_tz	hip_flexion_r	hip_adduction_r	hip_rotation_r	knee_angle_r	ankle_angle_r	subtalar_angle_r	mtp_angle_r	hip_flexion_l	hip_adduction_l	hip_rotation_l	knee_angle_l	ankle_angle_l	subtalar_angle_l	mtp_angle_l	lumbar_extension	lumbar_bending	lumbar_rotation
      4.31000000	     -1.66011941	      0.57201382	     -2.27124839	      0.56057082	      0.94100802	     -0.22078009	     19.31846280	     -1.23466189	     -1.14279159	    -62.27542340	      7.25775952	      5.24916271	      0.00000000	     14.41865108	      7.51500176	     -0.61533227	    -22.81777086	     17.03433331	     -3.28518698	      0.00000000	    -14.80752525	      2.33285598	    -10.12616953
      4.32000000	     -1.83582712	      0.40982928	     -1.79749768	      0.57202952	      0.94298438	     -0.22135034	     20.58870897	     -0.90339323	     -1.30117266	    -60.99849339	      8.04024068	      5.11310799	      0.00000000	     13.26432490	      7.37189309	     -0.40681262	    -21.76340862	     17.13899461	     -2.74209447	      0.00000000	    -14.60257321	      2.63434320	    -10.66877072
      4.33000000	     -1.96878934	      0.27434069	     -1.31753472	      0.58341703	      0.94471092	     -0.22188926	     21.75410159	     -0.63636454	     -1.49303487	    -59.52458252	      8.76861644	      4.96855962	      0.00000000	     12.10788795	      7.25466616	     -0.15504347	    -20.77209247	     17.26181214	     -2.20495686	      0.00000000	    -14.46519625	      2.89193681	    -11.18032964
      4.34000000	     -2.08692182	      0.18340853	     -0.83951446	      0.59472323	      0.94611157	     -0.22238081	     22.85468223	     -0.43943347	     -1.68701570	    -57.88196223	      9.43539404	      4.78650302	      0.00000000	     10.97911967	      7.18645353	      0.16113917	    -19.84071978	     17.35864011	     -1.83897935	      0.00000000	    -14.36569538	      3.08393960	    -11.72728389
      4.35000000	     -2.15547649	      0.12654083	     -0.38364837	      0.60599108	      0.94725392	     -0.22282106	     23.83956502	     -0.30330451	     -1.88142449	    -56.05802656	     10.05535077	      4.67975762	      0.00000000	      9.82771189	      7.15620460	      0.54595268	    -18.95968541	     17.47428946	     -1.55865945	      0.00000000	    -14.34157153	      3.22639555	    -12.19279642
      4.36000000	     -2.18994023	      0.10939336	      0.04099140	      0.61722079	      0.94810393	     -0.22317533	     24.72873749	     -0.22111258	     -2.05675721	    -54.06905147	     10.63949832	      4.67745415	      0.00000000	      8.66685740	      7.16706748	      0.98942085	    -18.12292850	     17.59163246	     -1.41033936	      0.00000000	    -14.37806600	      3.30190363	    -12.58863675
      4.37000000	     -2.17982112	      0.13291322	      0.43165211	      0.62844487	      0.94869537	     -0.22346852	     25.49897957	     -0.19286523	     -2.20675008	    -51.90711289	     11.18382214	      4.87855131	      0.00000000	      7.47183120	      7.22418761	      1.50503307	    -17.31208503	     17.68283597	     -1.45421406	      0.00000000	    -14.48711080	      3.32309315	    -12.88682037
      4.38000000	     -2.17253464	      0.18762266	      0.79309117	      0.63965976	      0.94895649	     -0.22367313	     26.19849008	     -0.19756581	     -2.32292638	    -49.57686766	     11.68834083	      5.26428052	      0.00000000	      6.30467526	      7.31153006	      2.05817545	    -16.55033335	     17.78670648	     -1.62244083	      0.00000000	    -14.60936003	      3.28764832	    -13.12163810
      4.39000000	     -2.14327815	      0.28139928	      1.11861765	      0.65090109	      0.94895385	     -0.22379123	     26.78997292	     -0.24657155	     -2.40910677	    -47.07191238	     12.15144472	      5.89612245	      0.00000000	      5.11597559	      7.44124224	      2.69123473	    -15.80056909	     17.79254186	     -2.00126932	      0.00000000	    -14.77472949	      3.18324393	    -13.22109995
      4.40000000	     -2.13491622	      0.37033852	      1.42737962	      0.66217580	      0.94863286	     -0.22383727	     27.29939552	     -0.27509734	     -2.43120819	    -44.36846255	     12.53544744	      6.69558068	      0.00000000	      3.97551098	      7.56462390	      3.38361326	    -15.11462826	     17.88216343	     -2.54427146	      0.00000000	    -14.92870128	      3.07447880	    -13.29944011
      4.41000000	     -2.10262280	      0.45650512	      1.74826969	      0.67351281	      0.94810438	     -0.22386715	     27.66182340	     -0.31129945	     -2.43952627	    -41.45300369	     12.79460960	      7.66659402	      0.00000000	      2.83559676	      7.66873964	      4.03984374	    -14.49438934	     18.03440077	     -2.97494702	      0.00000000	    -15.12367805	      2.97257407	    -13.34509244
      4.42000000	     -2.05076048	      0.53332018	      2.09774272	      0.68493690	      0.94737428	     -0.22388340	     27.87033873	     -0.34214647	     -2.41169714	    -38.32266787	     12.94797982	      8.67058657	      0.00000000	      1.69991233	      7.74161448	      4.65908506	    -13.94213972	     18.27855537	     -3.23195340	      0.00000000	    -15.34867674	      2.88084304	    -13.38898067
      4.43000000	     -2.00273625	      0.62729989	      2.40830876	      0.69645567	      0.94639395	     -0.22383133	     27.97076422	     -0.35965314	     -2.23057050	    -35.01588633	     12.96884560	      9.70933946	      0.00000000	      0.56106116	      7.83535547	      5.39010736	    -13.39691097	     18.44966436	     -3.87582196	      0.00000000	    -15.57633744	      2.75944197	    -13.39186496
      4.44000000	     -1.93566127	      0.70316682	      2.79023807	      0.70808367	      0.94524557	     -0.22382158	     27.90632785	     -0.37255055	     -1.97199355	    -31.50440066	     12.82283378	     10.51942361	      0.00000000	     -0.55636090	      7.87042099	      5.98293188	    -12.95224323	     18.81600341	     -4.05345982	      0.00000000	    -15.82334317	      2.67445496	    -13.47929556
      4.45000000	     -1.84150930	      0.80701439	      3.15904808	      0.71984316	      0.94392320	     -0.22377092	     27.70193315	     -0.39921233	     -1.52553770	    -27.85168729	     12.54065809	     11.11701325	      0.00000000	     -1.71776315	      7.91897918	      6.61469238	    -12.50393942	     19.13091143	     -4.34315886	      0.00000000	    -16.09905340	      2.54993078	    -13.54002981
      4.46000000	     -1.73841358	      0.94716077	      3.52609081	      0.73174813	      0.94240784	     -0.22372136	     27.38181866	     -0.45893894	     -0.84842500	    -24.08576727	     12.07314710	     11.29107426	      0.00000000	     -2.91811911	      7.99195103	      7.33049406	    -12.02830333	     19.36720653	     -4.75305656	      0.00000000	    -16.37009551	      2.39157792	    -13.58133944
      4.47000000	     -1.61018490	      1.11524774	      3.94779052	      0.74375503	      0.94073893	     -0.22372602	     26.93499434	     -0.58713625	     -0.01529019	    -20.24514315	     11.44994522	     11.04994220	      0.00000000	     -4.11894420	      8.06102565	      7.99807103	    -11.62875521	     19.67669375	     -5.01321480	      0.00000000	    -16.66772323	      2.21695776	    -13.73826587
      4.48000000	     -1.45399801	      1.33012163	      4.40190288	      0.75590368	      0.93892351	     -0.22376719	     26.38082486	     -0.81093614	      0.94606611	    -16.39673781	     10.66365601	     10.29410630	      0.00000000	     -5.35499953	      8.14562951	      8.64791520	    -11.24934438	     19.97728139	     -5.17800167	      0.00000000	    -16.98390190	      2.00282115	    -13.95228874
      4.49000000	     -1.34110789	      1.59618281	      4.91817550	      0.76817565	      0.93685351	     -0.22389194	     25.82575292	     -1.16602385	      1.91909415	    -12.64063764	      9.74448009	      9.00282908	      0.00000000	     -6.52793613	      8.25670628	      9.33381125	    -10.93889572	     20.30553540	     -5.26070470	      0.00000000	    -17.22803875	      1.74627255	    -14.27391260
      4.50000000	     -1.19562232	      1.92533916	      5.46463163	      0.78055774	      0.93467017	     -0.22406485	     25.25820006	     -1.66852913	      2.48772625	     -9.14296149	      8.83971871	      7.70516259	      0.00000000	     -7.71745307	      8.39474369	      9.94280633	    -10.69546791	     20.61274110	     -5.14982770	      0.00000000	    -17.50851103	      1.43449510	    -14.63128689
      4.51000000	     -1.06481445	      2.28536725	      6.04967342	      0.79303240	      0.93234752	     -0.22426757	     24.78681671	     -2.25827580	      2.33757021	     -6.05800872	      8.10630574	      6.72227146	      0.00000000	     -8.84871453	      8.53009038	     10.49283673	    -10.56009720	     20.94324436	     -4.87343830	      0.00000000	    -17.76737680	      1.10113849	    -15.04566793
      4.52000000	     -0.96808049	      2.63224226	      6.65917292	      0.80558754	      0.92991780	     -0.22444093	     24.47915194	     -2.83413799	      1.26335183	     -3.51561791	      7.62560336	      6.29948156	      0.00000000	     -9.88729680	      8.62384849	     11.02468549	    -10.54939694	     21.33930759	     -4.49629674	      0.00000000	    -17.98196575	      0.78356706	    -15.45379359
      4.53000000	     -0.88319904	      2.93763673	      7.29592365	      0.81825296	      0.92747101	     -0.22454038	     24.26520520	     -3.31805717	     -0.23264716	     -1.50673809	      7.27842654	      5.83077551	      0.00000000	    -10.83952850	      8.63847596	     11.46344863	    -10.68235012	     21.69313489	     -4.01187871	      0.00000000	    -18.17475655	      0.51699216	    -15.90807419
      4.54000000	     -0.76175756	      3.18307149	      7.92732974	      0.83103953	      0.92514111	     -0.22454358	     24.10933927	     -3.67966962	     -2.13592935	     -0.10293618	      7.15453263	      5.58205225	      0.00000000	    -11.74143491	      8.55186093	     11.70032331	    -10.97287711	     22.05151367	     -3.22931168	      0.00000000	    -18.40807219	      0.32883905	    -16.33153916
      4.55000000	     -0.69423905	      3.33069825	      8.55755209	      0.84396461	      0.92282112	     -0.22449143	     24.12619231	     -3.91380264	     -4.33802059	      0.63362637	      7.25428274	      5.47802814	      0.00000000	    -12.47549234	      8.35028254	     11.77348389	    -11.44949762	     22.44304763	     -2.30401788	      0.00000000	    -18.55068093	      0.25064869	    -16.72484904
      4.56000000	     -0.66547177	      3.41884284	      9.14235216	      0.85705863	      0.92055767	     -0.22437830	     24.28617752	     -4.07671330	     -6.56399440	      0.71218779	      7.45218612	      5.38051021	      0.00000000	    -13.09027547	      8.09077222	     11.72793959	    -12.05486833	     22.76120312	     -1.39414825	      0.00000000	    -18.62125314	      0.23457294	    -17.09596785
